<?xml version="1.0" encoding="utf-8"?>
<!-- Generator: Adobe Illustrator 18.0.0, SVG Export Plug-In . SVG Version: 6.00 Build 0)  -->
<!DOCTYPE svg PUBLIC "-//W3C//DTD SVG 1.1//EN" "http://www.w3.org/Graphics/SVG/1.1/DTD/svg11.dtd">
<svg version="1.1" id="Layer_1" xmlns="http://www.w3.org/2000/svg" xmlns:xlink="http://www.w3.org/1999/xlink" x="0px" y="0px"
	 viewBox="0 0 32 32" enable-background="new 0 0 32 32" xml:space="preserve">
<path d="M3,11.8H0v16c0,1.6,1.4,3,3,3h20.4c1.6,0,3-1.4,3-3H3V11.8z M24.8,6V3c0-1.6-1.4-3-3-3H16c-1.6,0-3,1.4-3,3v3H5.6v16
	c0,1.6,1.4,3,3,3H29c1.6,0,3-1.4,3-3V6H24.8z M16.2,3.2H22v3h-5.8V3.2z M16.2,20.6V10.4l8,4.4L16.2,20.6z"/>
</svg>
